<svg version="1.1" xmlns="http://www.w3.org/2000/svg" viewBox="0 0 2774.399566528739 1589.4210445988083" width="2774.399566528739" height="1589.4210445988083">
  <!-- svg-source:excalidraw -->
  
  <defs>
    <style class="style-fonts">
      @font-face {
        font-family: "Virgil";
        src: url("https://excalidraw.com/Virgil.woff2");
      }
      @font-face {
        font-family: "Cascadia";
        src: url("https://excalidraw.com/Cascadia.woff2");
      }
    </style>
  </defs>
  <rect x="0" y="0" width="2774.399566528739" height="1589.4210445988083" fill="#ffffff"></rect><g stroke-linecap="round" transform="translate(828.3141421524035 84.69111774000544) rotate(0 128 128)"><path d="M0.14 1.42 C80.85 -0.37, 165.41 1.82, 256.66 -1.03 M-0.54 -0.49 C100.86 1.41, 202.75 1.17, 256.11 0.67 M254.95 0.66 C254.42 85.68, 254.28 174.66, 256.75 255.11 M255.37 -0.65 C254.81 82.75, 254.15 165.69, 256.12 255.72 M256.44 257.5 C180.04 253.07, 101.76 253.12, -0.91 255.28 M255.67 256.79 C175.75 254.44, 94.51 253.94, 0.8 255.45 M0.85 255.68 C-2.48 196.78, -2.21 139.42, 0.48 1.18 M0.5 255.22 C2.51 176.42, 1.53 97.42, 0.41 -0.44" stroke="#000000" stroke-width="1" fill="none"></path></g><g transform="translate(905.8141421524035 121.69111774000544) rotate(0 50.5 91)"><text x="50.5" y="19" font-family="Virgil, Segoe UI Emoji" font-size="20px" fill="#000000" text-anchor="middle" style="white-space: pre;" direction="ltr">User</text><text x="50.5" y="45" font-family="Virgil, Segoe UI Emoji" font-size="20px" fill="#000000" text-anchor="middle" style="white-space: pre;" direction="ltr">id</text><text x="50.5" y="71" font-family="Virgil, Segoe UI Emoji" font-size="20px" fill="#000000" text-anchor="middle" style="white-space: pre;" direction="ltr">email</text><text x="50.5" y="97" font-family="Virgil, Segoe UI Emoji" font-size="20px" fill="#000000" text-anchor="middle" style="white-space: pre;" direction="ltr">pwd</text><text x="50.5" y="123" font-family="Virgil, Segoe UI Emoji" font-size="20px" fill="#000000" text-anchor="middle" style="white-space: pre;" direction="ltr">cpf</text><text x="50.5" y="149" font-family="Virgil, Segoe UI Emoji" font-size="20px" fill="#000000" text-anchor="middle" style="white-space: pre;" direction="ltr">address</text><text x="50.5" y="175" font-family="Virgil, Segoe UI Emoji" font-size="20px" fill="#000000" text-anchor="middle" style="white-space: pre;" direction="ltr">avatarUrl</text></g><g stroke-linecap="round" transform="translate(1294.1943198308936 415.02637491970745) rotate(0 129 135)"><path d="M0.2 1.33 C93.56 0.67, 184.86 0.03, 256.9 1.05 M0.1 0.72 C90.31 -0.14, 179.89 0.18, 258.49 -0.16 M259.56 -1.18 C259.13 106.27, 259.35 215, 258.29 270.37 M258.75 0.67 C258.54 59.88, 258.62 119.98, 257.45 270.18 M257.13 270.08 C157.47 268.44, 56.86 270, -1.58 270.16 M257.83 270.77 C180.35 270.69, 101.83 269.69, -0.65 270.65 M-1.1 270.73 C2.26 174.29, -0.35 79.5, 1.45 -1.29 M0.51 269.72 C0.78 177.17, 1.1 85.96, 0.02 -0.57" stroke="#000000" stroke-width="1" fill="none"></path></g><g transform="translate(1330.1943198308936 420.02637491970745) rotate(0 93 130)"><text x="93" y="19" font-family="Virgil, Segoe UI Emoji" font-size="20px" fill="#000000" text-anchor="middle" style="white-space: pre;" direction="ltr">Transaction</text><text x="93" y="45" font-family="Virgil, Segoe UI Emoji" font-size="20px" fill="#000000" text-anchor="middle" style="white-space: pre;" direction="ltr">transactionId</text><text x="93" y="71" font-family="Virgil, Segoe UI Emoji" font-size="20px" fill="#000000" text-anchor="middle" style="white-space: pre;" direction="ltr">fromAccountNumber</text><text x="93" y="97" font-family="Virgil, Segoe UI Emoji" font-size="20px" fill="#000000" text-anchor="middle" style="white-space: pre;" direction="ltr">toAccountNumber</text><text x="93" y="123" font-family="Virgil, Segoe UI Emoji" font-size="20px" fill="#000000" text-anchor="middle" style="white-space: pre;" direction="ltr">Type</text><text x="93" y="149" font-family="Virgil, Segoe UI Emoji" font-size="20px" fill="#000000" text-anchor="middle" style="white-space: pre;" direction="ltr">Amount</text><text x="93" y="175" font-family="Virgil, Segoe UI Emoji" font-size="20px" fill="#000000" text-anchor="middle" style="white-space: pre;" direction="ltr">Date</text><text x="93" y="201" font-family="Virgil, Segoe UI Emoji" font-size="20px" fill="#000000" text-anchor="middle" style="white-space: pre;" direction="ltr">Status</text><text x="93" y="227" font-family="Virgil, Segoe UI Emoji" font-size="20px" fill="#000000" text-anchor="middle" style="white-space: pre;" direction="ltr">Description</text><text x="93" y="253" font-family="Virgil, Segoe UI Emoji" font-size="20px" fill="#000000" text-anchor="middle" style="white-space: pre;" direction="ltr"></text></g><g stroke-linecap="round" transform="translate(841.843523678461 444.11543152374816) rotate(0 119.5 109)"><path d="M-0.38 0.39 C74.01 2.03, 149.74 1.11, 238.32 0.2 M-0.28 -0.4 C82.54 -1.83, 166.1 -0.65, 239.24 0.8 M237.39 -1.54 C238.4 81.4, 236.74 159.96, 239.82 217.71 M238.92 -0.39 C240.16 67.57, 239.03 134.41, 239.48 218.04 M239.69 216.61 C153.14 216.61, 64.07 218.45, 0.44 218.21 M238.54 217.33 C162.78 218.7, 86.51 219.52, 0.69 217.36 M0.15 216.5 C-3.08 162.85, -0.54 110.48, 1.01 -1.01 M-0.16 217.45 C1.95 134.52, 1.33 50.1, 0.3 0.67" stroke="#000000" stroke-width="1" fill="none"></path></g><g transform="translate(881.343523678461 449.11543152374816) rotate(0 80 91)"><text x="80" y="19" font-family="Virgil, Segoe UI Emoji" font-size="20px" fill="#000000" text-anchor="middle" style="white-space: pre;" direction="ltr">Account</text><text x="80" y="45" font-family="Virgil, Segoe UI Emoji" font-size="20px" fill="#000000" text-anchor="middle" style="white-space: pre;" direction="ltr">id</text><text x="80" y="71" font-family="Virgil, Segoe UI Emoji" font-size="20px" fill="#000000" text-anchor="middle" style="white-space: pre;" direction="ltr">number</text><text x="80" y="97" font-family="Virgil, Segoe UI Emoji" font-size="20px" fill="#000000" text-anchor="middle" style="white-space: pre;" direction="ltr">balance</text><text x="80" y="123" font-family="Virgil, Segoe UI Emoji" font-size="20px" fill="#000000" text-anchor="middle" style="white-space: pre;" direction="ltr">type</text><text x="80" y="149" font-family="Virgil, Segoe UI Emoji" font-size="20px" fill="#000000" text-anchor="middle" style="white-space: pre;" direction="ltr">cardProfileScore</text><text x="80" y="175" font-family="Virgil, Segoe UI Emoji" font-size="20px" fill="#000000" text-anchor="middle" style="white-space: pre;" direction="ltr"></text></g><g stroke-linecap="round"><g transform="translate(961.7302648698258 348.9008274303344) rotate(0 0.3645268915140605 44.1713303748038)"><path d="M-1.17 -1.02 C-0.66 13.59, 1.59 73.1, 1.9 87.81 M0.42 1.05 C0.98 15.86, 1.65 74.83, 1.57 89.37" stroke="#000000" stroke-width="1" fill="none"></path></g></g><g transform="translate(975.2888844093254 360.095562516939) rotate(0 5.5 39)"><text x="0" y="19" font-family="Virgil, Segoe UI Emoji" font-size="20px" fill="#000000" text-anchor="start" style="white-space: pre;" direction="ltr">1</text><text x="0" y="45" font-family="Virgil, Segoe UI Emoji" font-size="20px" fill="#000000" text-anchor="start" style="white-space: pre;" direction="ltr">/</text><text x="0" y="71" font-family="Virgil, Segoe UI Emoji" font-size="20px" fill="#000000" text-anchor="start" style="white-space: pre;" direction="ltr">1</text></g><g stroke-linecap="round" transform="translate(853.0033055721387 782.2456973986026) rotate(0 119.5 200)"><path d="M-0.05 1.36 C69.02 -1.17, 137.77 -0.04, 237.57 1.03 M-0.47 0.83 C50.98 -1.45, 102.64 -1.39, 239.83 0.14 M240.02 -0.51 C238.49 139.21, 237.93 277.06, 238.33 399.5 M239.14 -0.33 C238.07 89.44, 237.96 177.78, 239.24 399.95 M237.85 400.24 C154.47 397.11, 67.74 397.36, -1.2 400.84 M239.22 399.5 C161.71 401.12, 82.75 400.77, 0.46 400.79 M0.86 400.09 C-1.07 255.69, -0.7 112.54, -0.42 0.72 M-0.12 399.49 C1.4 297.97, 1.53 197.32, -0.37 0.44" stroke="#000000" stroke-width="1" fill="none"></path></g><g transform="translate(885.0033055721387 826.2456973986026) rotate(0 87.5 156)"><text x="87.5" y="19" font-family="Virgil, Segoe UI Emoji" font-size="20px" fill="#000000" text-anchor="middle" style="white-space: pre;" direction="ltr">Cards</text><text x="87.5" y="45" font-family="Virgil, Segoe UI Emoji" font-size="20px" fill="#000000" text-anchor="middle" style="white-space: pre;" direction="ltr">account_number</text><text x="87.5" y="71" font-family="Virgil, Segoe UI Emoji" font-size="20px" fill="#000000" text-anchor="middle" style="white-space: pre;" direction="ltr">card_number</text><text x="87.5" y="97" font-family="Virgil, Segoe UI Emoji" font-size="20px" fill="#000000" text-anchor="middle" style="white-space: pre;" direction="ltr">type</text><text x="87.5" y="123" font-family="Virgil, Segoe UI Emoji" font-size="20px" fill="#000000" text-anchor="middle" style="white-space: pre;" direction="ltr">expiration</text><text x="87.5" y="149" font-family="Virgil, Segoe UI Emoji" font-size="20px" fill="#000000" text-anchor="middle" style="white-space: pre;" direction="ltr">cvc</text><text x="87.5" y="175" font-family="Virgil, Segoe UI Emoji" font-size="20px" fill="#000000" text-anchor="middle" style="white-space: pre;" direction="ltr">flag</text><text x="87.5" y="201" font-family="Virgil, Segoe UI Emoji" font-size="20px" fill="#000000" text-anchor="middle" style="white-space: pre;" direction="ltr"># credit card:</text><text x="87.5" y="227" font-family="Virgil, Segoe UI Emoji" font-size="20px" fill="#000000" text-anchor="middle" style="white-space: pre;" direction="ltr">limit</text><text x="87.5" y="253" font-family="Virgil, Segoe UI Emoji" font-size="20px" fill="#000000" text-anchor="middle" style="white-space: pre;" direction="ltr">invoice_due_date</text><text x="87.5" y="279" font-family="Virgil, Segoe UI Emoji" font-size="20px" fill="#000000" text-anchor="middle" style="white-space: pre;" direction="ltr"></text><text x="87.5" y="305" font-family="Virgil, Segoe UI Emoji" font-size="20px" fill="#000000" text-anchor="middle" style="white-space: pre;" direction="ltr"></text></g><g transform="translate(978.8569421828779 669.0893657065874) rotate(0 7.5 39)"><text x="0" y="19" font-family="Virgil, Segoe UI Emoji" font-size="20px" fill="#000000" text-anchor="start" style="white-space: pre;" direction="ltr">1</text><text x="0" y="45" font-family="Virgil, Segoe UI Emoji" font-size="20px" fill="#000000" text-anchor="start" style="white-space: pre;" direction="ltr">/</text><text x="0" y="71" font-family="Virgil, Segoe UI Emoji" font-size="20px" fill="#000000" text-anchor="start" style="white-space: pre;" direction="ltr">N</text></g><g stroke-linecap="round"><g transform="translate(964.4794186124723 678.1728829575378) rotate(0 -0.4726067935048377 43.42440301510359)"><path d="M0.2 -1.1 C0.32 13.57, -0.01 72.22, 0.28 86.88 M-1.16 0.94 C-1.19 15.83, -1.38 73.48, -0.9 87.95" stroke="#000000" stroke-width="1" fill="none"></path></g></g><g stroke-linecap="round"><g transform="translate(1133.7106495550572 499.4728654742508) rotate(0 37.72393227245436 0.0018366191933694154)"><path d="M0.87 0.86 C13.66 1.08, 63.39 0.88, 75.58 0.78 M-0.13 0.27 C12.66 0.2, 62.21 -1.18, 74.97 -0.93" stroke="#000000" stroke-width="1" fill="none"></path></g></g><g transform="translate(1167.9640041811617 509.953989006145) rotate(0 7.5 39)"><text x="0" y="19" font-family="Virgil, Segoe UI Emoji" font-size="20px" fill="#000000" text-anchor="start" style="white-space: pre;" direction="ltr">1</text><text x="0" y="45" font-family="Virgil, Segoe UI Emoji" font-size="20px" fill="#000000" text-anchor="start" style="white-space: pre;" direction="ltr">/</text><text x="0" y="71" font-family="Virgil, Segoe UI Emoji" font-size="20px" fill="#000000" text-anchor="start" style="white-space: pre;" direction="ltr">N</text></g><g stroke-linecap="round" transform="translate(572.1443203895171 781.8443612340347) rotate(0 119.5 109)"><path d="M-0.58 -0.04 C51.05 -2.92, 99.47 -1.5, 237.79 0.47 M-0.32 -0.38 C60.07 1.2, 121.01 2.14, 238.22 -0.04 M238.65 0.6 C239.18 84.66, 240.37 166.55, 240.4 218.65 M239.01 -0.4 C238.92 68.27, 237.36 136.83, 238.47 218.15 M240.08 217.49 C156.77 219.2, 77.13 218.54, 0.95 218.22 M239.36 218.4 C147.75 220.05, 55.59 219.95, 0.1 217.36 M0.08 217.36 C-0.25 145.46, -0.85 71.29, 0.17 0.84 M0.58 217.64 C-1.14 157.82, -0.25 98.11, 0.32 0.06" stroke="#000000" stroke-width="1" fill="none"></path></g><g transform="translate(613.1443203895171 799.8443612340347) rotate(0 78.5 91)"><text x="78.5" y="19" font-family="Virgil, Segoe UI Emoji" font-size="20px" fill="#000000" text-anchor="middle" style="white-space: pre;" direction="ltr">Loans</text><text x="78.5" y="45" font-family="Virgil, Segoe UI Emoji" font-size="20px" fill="#000000" text-anchor="middle" style="white-space: pre;" direction="ltr">id</text><text x="78.5" y="71" font-family="Virgil, Segoe UI Emoji" font-size="20px" fill="#000000" text-anchor="middle" style="white-space: pre;" direction="ltr">account_number</text><text x="78.5" y="97" font-family="Virgil, Segoe UI Emoji" font-size="20px" fill="#000000" text-anchor="middle" style="white-space: pre;" direction="ltr">amount</text><text x="78.5" y="123" font-family="Virgil, Segoe UI Emoji" font-size="20px" fill="#000000" text-anchor="middle" style="white-space: pre;" direction="ltr">loan_date</text><text x="78.5" y="149" font-family="Virgil, Segoe UI Emoji" font-size="20px" fill="#000000" text-anchor="middle" style="white-space: pre;" direction="ltr">due_date</text><text x="78.5" y="175" font-family="Virgil, Segoe UI Emoji" font-size="20px" fill="#000000" text-anchor="middle" style="white-space: pre;" direction="ltr"></text></g><g transform="translate(704.8301051740441 613.427664439168) rotate(0 7.5 39)"><text x="0" y="19" font-family="Virgil, Segoe UI Emoji" font-size="20px" fill="#000000" text-anchor="start" style="white-space: pre;" direction="ltr">1</text><text x="0" y="45" font-family="Virgil, Segoe UI Emoji" font-size="20px" fill="#000000" text-anchor="start" style="white-space: pre;" direction="ltr">/</text><text x="0" y="71" font-family="Virgil, Segoe UI Emoji" font-size="20px" fill="#000000" text-anchor="start" style="white-space: pre;" direction="ltr">N</text></g><g stroke-linecap="round"><g transform="translate(831.8529619125138 564.4115169529066) rotate(0 -77.0338282404241 101.83401709459014)"><path d="M0.85 0.68 C-22.03 5.29, -112.41 -5.89, -138.2 27.78 C-163.99 61.45, -151.24 173.48, -153.9 202.71 M-0.16 0 C-22.58 4.77, -110.13 -4.84, -135.93 29.1 C-161.72 63.05, -151.85 174.51, -154.92 203.67" stroke="#000000" stroke-width="1" fill="none"></path></g></g><g stroke-linecap="round" transform="translate(1577.71416953176 434.70754632844285) rotate(0 71.04824104169165 68)"><path d="M-1.15 -1.15 C55.88 2.72, 112.73 2.31, 142.85 1.79 M0.78 -0.69 C48.04 0.63, 93.94 -0.54, 142.19 -0.55 M140.14 -1.33 C144.08 25.93, 143.51 54.37, 143.8 134.75 M141.31 -0.45 C140.67 44.06, 140.94 89.82, 141.2 136.67 M143.1 136.72 C96.84 136.25, 49.03 136.23, 1.8 137.11 M141.29 136.87 C94.48 136.37, 47.16 135.67, 0.55 136.27 M0.96 135.84 C-0.89 80.96, 1.37 30.52, 0.89 -0.9 M0.94 136.51 C-0.73 83.99, -1.32 31.93, 0.36 0.82" stroke="#000000" stroke-width="1" fill="none"></path></g><g transform="translate(1590.7624105734517 439.70754632844285) rotate(0 58 63)"><text x="58" y="15" font-family="Virgil, Segoe UI Emoji" font-size="16px" fill="#000000" text-anchor="middle" style="white-space: pre;" direction="ltr">Possible types:</text><text x="58" y="36" font-family="Virgil, Segoe UI Emoji" font-size="16px" fill="#000000" text-anchor="middle" style="white-space: pre;" direction="ltr">Pix</text><text x="58" y="57" font-family="Virgil, Segoe UI Emoji" font-size="16px" fill="#000000" text-anchor="middle" style="white-space: pre;" direction="ltr">TED</text><text x="58" y="78" font-family="Virgil, Segoe UI Emoji" font-size="16px" fill="#000000" text-anchor="middle" style="white-space: pre;" direction="ltr">DOC</text><text x="58" y="99" font-family="Virgil, Segoe UI Emoji" font-size="16px" fill="#000000" text-anchor="middle" style="white-space: pre;" direction="ltr">Card</text><text x="58" y="120" font-family="Virgil, Segoe UI Emoji" font-size="16px" fill="#000000" text-anchor="middle" style="white-space: pre;" direction="ltr">Invoice</text></g><g stroke-linecap="round" transform="translate(1584.8252507275724 582.7219087277651) rotate(0 86.5 68)"><path d="M1.97 -0.4 C39.37 -2.32, 76.58 -0.67, 174.28 -0.82 M-0.56 -0.71 C35.37 -1.68, 71.48 -1.18, 173.19 -0.76 M171.06 1.06 C174.68 34.45, 174.46 71.14, 171.17 135.1 M172.32 -0.47 C170.82 31, 170.72 60.63, 172.33 135.34 M174.17 137.41 C118.89 134.53, 66.89 135.16, 0.78 137.67 M174 135.15 C120.44 134.6, 68.12 135.54, -0.16 136.55 M1.65 135.24 C-0.31 107.72, -2.95 80.12, -1.2 0.11 M-0.03 136.69 C0.2 82.58, -0.35 28.49, 0.52 -0.92" stroke="#000000" stroke-width="1" fill="none"></path></g><g transform="translate(1588.8252507275724 587.7219087277651) rotate(0 81.5 63)"><text x="81.5" y="15" font-family="Virgil, Segoe UI Emoji" font-size="16px" fill="#000000" text-anchor="middle" style="white-space: pre;" direction="ltr">Credit: Adds </text><text x="81.5" y="36" font-family="Virgil, Segoe UI Emoji" font-size="16px" fill="#000000" text-anchor="middle" style="white-space: pre;" direction="ltr">transaction amount </text><text x="81.5" y="57" font-family="Virgil, Segoe UI Emoji" font-size="16px" fill="#000000" text-anchor="middle" style="white-space: pre;" direction="ltr">to invoice</text><text x="81.5" y="78" font-family="Virgil, Segoe UI Emoji" font-size="16px" fill="#000000" text-anchor="middle" style="white-space: pre;" direction="ltr">debit: subtracts </text><text x="81.5" y="99" font-family="Virgil, Segoe UI Emoji" font-size="16px" fill="#000000" text-anchor="middle" style="white-space: pre;" direction="ltr">from account </text><text x="81.5" y="120" font-family="Virgil, Segoe UI Emoji" font-size="16px" fill="#000000" text-anchor="middle" style="white-space: pre;" direction="ltr">balance</text></g><g stroke-linecap="round" transform="translate(1196.6323711646364 764.8467573686028) rotate(0 119.5 200)"><path d="M1.3 -0.33 C53.7 0.09, 105.51 1.55, 239.45 1.15 M0.78 -0.32 C79.5 0.42, 158.91 0.6, 239.44 0.67 M238.11 0.59 C237.9 123.03, 236.95 245.39, 238.06 399.2 M239.07 0.31 C238.47 105.64, 237.89 211.52, 239.19 400.02 M239.5 399.18 C145.71 400.67, 49.85 398.85, 1.25 400.62 M238.28 399.48 C191.09 401.09, 142.65 400.41, -0.14 399.64 M0.45 399.87 C2.46 276.35, 1.73 151.54, -1.08 0.38 M-0.41 399.91 C0.47 317.04, 1.08 234.29, -0.2 0.47" stroke="#000000" stroke-width="1" fill="none"></path></g><g transform="translate(1228.1323711646364 860.8467573686028) rotate(0 88 104)"><text x="88" y="19" font-family="Virgil, Segoe UI Emoji" font-size="20px" fill="#000000" text-anchor="middle" style="white-space: pre;" direction="ltr">Invoices</text><text x="88" y="45" font-family="Virgil, Segoe UI Emoji" font-size="20px" fill="#000000" text-anchor="middle" style="white-space: pre;" direction="ltr">id</text><text x="88" y="71" font-family="Virgil, Segoe UI Emoji" font-size="20px" fill="#000000" text-anchor="middle" style="white-space: pre;" direction="ltr">card_number</text><text x="88" y="97" font-family="Virgil, Segoe UI Emoji" font-size="20px" fill="#000000" text-anchor="middle" style="white-space: pre;" direction="ltr">amount</text><text x="88" y="123" font-family="Virgil, Segoe UI Emoji" font-size="20px" fill="#000000" text-anchor="middle" style="white-space: pre;" direction="ltr">status</text><text x="88" y="149" font-family="Virgil, Segoe UI Emoji" font-size="20px" fill="#000000" text-anchor="middle" style="white-space: pre;" direction="ltr">invoice_date </text><text x="88" y="175" font-family="Virgil, Segoe UI Emoji" font-size="20px" fill="#000000" text-anchor="middle" style="white-space: pre;" direction="ltr">(created_at)</text><text x="88" y="201" font-family="Virgil, Segoe UI Emoji" font-size="20px" fill="#000000" text-anchor="middle" style="white-space: pre;" direction="ltr">invoice_due_date</text></g><g stroke-linecap="round" transform="translate(1472.4505823502614 769.6371419059407) rotate(0 71.04824104169165 68)"><path d="M-0.9 0.08 C46.8 1.13, 92.89 -0.41, 143.19 -0.01 M0.72 -0.27 C32.24 0.26, 63.38 1.62, 141.91 0.26 M140.13 -1.7 C142.83 37.01, 141.3 77.15, 142.57 137.34 M141.76 0.98 C142.62 41.61, 142.72 84.59, 141.35 136.71 M140.56 134.21 C85.73 135.91, 31.68 136.13, -1.39 135.68 M141.4 136.04 C112.48 135.42, 82.17 134.38, 0.37 135.23 M0.5 137.77 C-0.3 104.4, 2.02 71.95, -1.77 0.34 M-0.55 135.6 C-1.1 92.84, -1.17 51.5, 0.63 -0.2" stroke="#000000" stroke-width="1" fill="none"></path></g><g transform="translate(1477.998823391953 784.6371419059407) rotate(0 65.5 52.5)"><text x="65.5" y="15" font-family="Virgil, Segoe UI Emoji" font-size="16px" fill="#000000" text-anchor="middle" style="white-space: pre;" direction="ltr">Possible Status:</text><text x="65.5" y="36" font-family="Virgil, Segoe UI Emoji" font-size="16px" fill="#000000" text-anchor="middle" style="white-space: pre;" direction="ltr">Open</text><text x="65.5" y="57" font-family="Virgil, Segoe UI Emoji" font-size="16px" fill="#000000" text-anchor="middle" style="white-space: pre;" direction="ltr">Closed</text><text x="65.5" y="78" font-family="Virgil, Segoe UI Emoji" font-size="16px" fill="#000000" text-anchor="middle" style="white-space: pre;" direction="ltr">Late</text><text x="65.5" y="99" font-family="Virgil, Segoe UI Emoji" font-size="16px" fill="#000000" text-anchor="middle" style="white-space: pre;" direction="ltr"></text></g><g stroke-linecap="round" transform="translate(1475.0604233547615 947.1063302119396) rotate(0 159 68)"><path d="M-1.1 0.08 C98.39 3.46, 198.44 1.21, 316.8 1 M-0.6 0.25 C85.49 -0.17, 170.77 0.09, 317.48 -0.17 M319.85 -1.26 C318.09 41.87, 315.37 87.15, 316.27 135.89 M318.95 -0.37 C317.06 38.96, 316.48 78.81, 317.65 136.04 M317.81 136.66 C209.52 135.2, 100.38 136.34, 0.45 136.3 M318.37 135.48 C222.14 137.43, 124.98 137.26, 0.52 135.3 M1.67 134.06 C0.35 101.98, 1.65 62.18, -1.62 1.01 M-0.26 135.42 C-1.53 108.6, 0.35 79.41, -0.29 0.54" stroke="#000000" stroke-width="1" fill="none"></path></g><g transform="translate(1485.5604233547615 962.1063302119396) rotate(0 148 52.5)"><text x="148" y="15" font-family="Virgil, Segoe UI Emoji" font-size="16px" fill="#000000" text-anchor="middle" style="white-space: pre;" direction="ltr">Each month a new invoice is created </text><text x="148" y="36" font-family="Virgil, Segoe UI Emoji" font-size="16px" fill="#000000" text-anchor="middle" style="white-space: pre;" direction="ltr">for each card. In the end of the </text><text x="148" y="57" font-family="Virgil, Segoe UI Emoji" font-size="16px" fill="#000000" text-anchor="middle" style="white-space: pre;" direction="ltr">month the invoice is closed for </text><text x="148" y="78" font-family="Virgil, Segoe UI Emoji" font-size="16px" fill="#000000" text-anchor="middle" style="white-space: pre;" direction="ltr">another one to be open in the next </text><text x="148" y="99" font-family="Virgil, Segoe UI Emoji" font-size="16px" fill="#000000" text-anchor="middle" style="white-space: pre;" direction="ltr">month </text></g><g stroke-linecap="round" transform="translate(1481.1500523652612 1103.6967904819385) rotate(0 161.5 225.49999999999997)"><path d="M1.36 0.37 C80.06 1.33, 158.66 2.54, 323.37 -0.4 M-0.52 0.17 C87.29 -1.27, 176.29 -0.63, 323.4 -0.08 M323.48 -0.75 C323.02 93.59, 321.26 186.18, 323.9 451.32 M322.92 0.34 C321.21 140.77, 321.68 280.49, 323.27 450.57 M321.94 451.46 C246.78 453.51, 169.88 451.5, 0.37 452.32 M323.5 450.36 C196.17 449.04, 68.21 449.84, 0.02 450.5 M-0.42 450.29 C-2.77 275.07, -1.96 98.23, -0.07 0.89 M0.2 451.17 C-1.65 302.35, -1.85 153.16, -0.41 0.36" stroke="#000000" stroke-width="1" fill="none"></path></g><g transform="translate(1484.6500523652612 1108.6967904819385) rotate(0 155 220.49999999999997)"><text x="155" y="15" font-family="Virgil, Segoe UI Emoji" font-size="16px" fill="#000000" text-anchor="middle" style="white-space: pre;" direction="ltr">If the account uses the credit card, </text><text x="155" y="36" font-family="Virgil, Segoe UI Emoji" font-size="16px" fill="#000000" text-anchor="middle" style="white-space: pre;" direction="ltr">it will be added to the invoice amount,</text><text x="155" y="57" font-family="Virgil, Segoe UI Emoji" font-size="16px" fill="#000000" text-anchor="middle" style="white-space: pre;" direction="ltr">then the account needs to pay the </text><text x="155" y="78" font-family="Virgil, Segoe UI Emoji" font-size="16px" fill="#000000" text-anchor="middle" style="white-space: pre;" direction="ltr">total amount until the invoice due </text><text x="155" y="99" font-family="Virgil, Segoe UI Emoji" font-size="16px" fill="#000000" text-anchor="middle" style="white-space: pre;" direction="ltr">date</text><text x="155" y="120" font-family="Virgil, Segoe UI Emoji" font-size="16px" fill="#000000" text-anchor="middle" style="white-space: pre;" direction="ltr"></text><text x="155" y="141" font-family="Virgil, Segoe UI Emoji" font-size="16px" fill="#000000" text-anchor="middle" style="white-space: pre;" direction="ltr"></text><text x="155" y="162" font-family="Virgil, Segoe UI Emoji" font-size="16px" fill="#000000" text-anchor="middle" style="white-space: pre;" direction="ltr">Also, the total account spendings on </text><text x="155" y="183" font-family="Virgil, Segoe UI Emoji" font-size="16px" fill="#000000" text-anchor="middle" style="white-space: pre;" direction="ltr">the month cannot surpass the limit, </text><text x="155" y="204" font-family="Virgil, Segoe UI Emoji" font-size="16px" fill="#000000" text-anchor="middle" style="white-space: pre;" direction="ltr">however, the account can pay totally </text><text x="155" y="225" font-family="Virgil, Segoe UI Emoji" font-size="16px" fill="#000000" text-anchor="middle" style="white-space: pre;" direction="ltr">or partially the amount, doing this the</text><text x="155" y="246" font-family="Virgil, Segoe UI Emoji" font-size="16px" fill="#000000" text-anchor="middle" style="white-space: pre;" direction="ltr">account subtracts from the invoice </text><text x="155" y="267" font-family="Virgil, Segoe UI Emoji" font-size="16px" fill="#000000" text-anchor="middle" style="white-space: pre;" direction="ltr">amount, making it possible for the user</text><text x="155" y="288" font-family="Virgil, Segoe UI Emoji" font-size="16px" fill="#000000" text-anchor="middle" style="white-space: pre;" direction="ltr">to continue to use his credit card.</text><text x="155" y="309" font-family="Virgil, Segoe UI Emoji" font-size="16px" fill="#000000" text-anchor="middle" style="white-space: pre;" direction="ltr"></text><text x="155" y="330" font-family="Virgil, Segoe UI Emoji" font-size="16px" fill="#000000" text-anchor="middle" style="white-space: pre;" direction="ltr">Until the end of the month, the invoice</text><text x="155" y="351" font-family="Virgil, Segoe UI Emoji" font-size="16px" fill="#000000" text-anchor="middle" style="white-space: pre;" direction="ltr">amount needs to be 0, if else, the </text><text x="155" y="372" font-family="Virgil, Segoe UI Emoji" font-size="16px" fill="#000000" text-anchor="middle" style="white-space: pre;" direction="ltr">previous amount will be added to the </text><text x="155" y="393" font-family="Virgil, Segoe UI Emoji" font-size="16px" fill="#000000" text-anchor="middle" style="white-space: pre;" direction="ltr">next invoice with some interest rate. </text><text x="155" y="414" font-family="Virgil, Segoe UI Emoji" font-size="16px" fill="#000000" text-anchor="middle" style="white-space: pre;" direction="ltr">and the account cardProfileScore will </text><text x="155" y="435" font-family="Virgil, Segoe UI Emoji" font-size="16px" fill="#000000" text-anchor="middle" style="white-space: pre;" direction="ltr">be decreased.</text></g><g stroke-linecap="round" transform="translate(1885.3260345508725 780.7251250565615) rotate(0 128 393.5)"><path d="M-1.48 -0.26 C55.9 0.42, 107.69 -2.05, 254.58 1.12 M0.51 -0.35 C57.7 2.06, 117.09 2.45, 255.25 -0.53 M255.49 0.31 C253.32 170.82, 254.43 343.7, 255.85 786.23 M256.32 -0.13 C258.16 203.51, 257.96 406.62, 255.88 787.23 M256.02 786.34 C172.54 786.03, 88.29 786.23, 1.34 785.84 M255.68 786.41 C156.26 787.6, 55.66 786.5, -0.09 786.7 M-0.15 786.3 C1.71 610.46, 1.83 434.63, 0.53 0.34 M0.37 787.2 C-0.32 527.23, 0.16 267.16, 0.34 0.14" stroke="#000000" stroke-width="1" fill="none"></path></g><g transform="translate(1889.5083233454957 785.7251250565615) rotate(0 123 388.5)"><text x="123" y="15" font-family="Virgil, Segoe UI Emoji" font-size="16px" fill="#000000" text-anchor="middle" style="white-space: pre;" direction="ltr">About the cardProfileScore</text><text x="123" y="36" font-family="Virgil, Segoe UI Emoji" font-size="16px" fill="#000000" text-anchor="middle" style="white-space: pre;" direction="ltr">if you pay 100% of your </text><text x="123" y="57" font-family="Virgil, Segoe UI Emoji" font-size="16px" fill="#000000" text-anchor="middle" style="white-space: pre;" direction="ltr">invoice amount until the end of</text><text x="123" y="78" font-family="Virgil, Segoe UI Emoji" font-size="16px" fill="#000000" text-anchor="middle" style="white-space: pre;" direction="ltr">the invoice due date, your </text><text x="123" y="99" font-family="Virgil, Segoe UI Emoji" font-size="16px" fill="#000000" text-anchor="middle" style="white-space: pre;" direction="ltr">score is increased by:</text><text x="123" y="120" font-family="Virgil, Segoe UI Emoji" font-size="16px" fill="#000000" text-anchor="middle" style="white-space: pre;" direction="ltr"></text><text x="123" y="141" font-family="Virgil, Segoe UI Emoji" font-size="16px" fill="#000000" text-anchor="middle" style="white-space: pre;" direction="ltr">percentage of how much you </text><text x="123" y="162" font-family="Virgil, Segoe UI Emoji" font-size="16px" fill="#000000" text-anchor="middle" style="white-space: pre;" direction="ltr">use of your limit divided by 10</text><text x="123" y="183" font-family="Virgil, Segoe UI Emoji" font-size="16px" fill="#000000" text-anchor="middle" style="white-space: pre;" direction="ltr"></text><text x="123" y="204" font-family="Virgil, Segoe UI Emoji" font-size="16px" fill="#000000" text-anchor="middle" style="white-space: pre;" direction="ltr">everyone starts with a score </text><text x="123" y="225" font-family="Virgil, Segoe UI Emoji" font-size="16px" fill="#000000" text-anchor="middle" style="white-space: pre;" direction="ltr">of 50 points</text><text x="123" y="246" font-family="Virgil, Segoe UI Emoji" font-size="16px" fill="#000000" text-anchor="middle" style="white-space: pre;" direction="ltr"></text><text x="123" y="267" font-family="Virgil, Segoe UI Emoji" font-size="16px" fill="#000000" text-anchor="middle" style="white-space: pre;" direction="ltr">if you pay your invoice using </text><text x="123" y="288" font-family="Virgil, Segoe UI Emoji" font-size="16px" fill="#000000" text-anchor="middle" style="white-space: pre;" direction="ltr">only 40% of your limit then </text><text x="123" y="309" font-family="Virgil, Segoe UI Emoji" font-size="16px" fill="#000000" text-anchor="middle" style="white-space: pre;" direction="ltr">your score will be added 4% </text><text x="123" y="330" font-family="Virgil, Segoe UI Emoji" font-size="16px" fill="#000000" text-anchor="middle" style="white-space: pre;" direction="ltr">so your score will be</text><text x="123" y="351" font-family="Virgil, Segoe UI Emoji" font-size="16px" fill="#000000" text-anchor="middle" style="white-space: pre;" direction="ltr"></text><text x="123" y="372" font-family="Virgil, Segoe UI Emoji" font-size="16px" fill="#000000" text-anchor="middle" style="white-space: pre;" direction="ltr">52 points</text><text x="123" y="393" font-family="Virgil, Segoe UI Emoji" font-size="16px" fill="#000000" text-anchor="middle" style="white-space: pre;" direction="ltr"></text><text x="123" y="414" font-family="Virgil, Segoe UI Emoji" font-size="16px" fill="#000000" text-anchor="middle" style="white-space: pre;" direction="ltr">once it reaches 100%, your </text><text x="123" y="435" font-family="Virgil, Segoe UI Emoji" font-size="16px" fill="#000000" text-anchor="middle" style="white-space: pre;" direction="ltr">limit doubles it sizes and you </text><text x="123" y="456" font-family="Virgil, Segoe UI Emoji" font-size="16px" fill="#000000" text-anchor="middle" style="white-space: pre;" direction="ltr">get back to 50 points plus 1%</text><text x="123" y="477" font-family="Virgil, Segoe UI Emoji" font-size="16px" fill="#000000" text-anchor="middle" style="white-space: pre;" direction="ltr">of your last limit</text><text x="123" y="498" font-family="Virgil, Segoe UI Emoji" font-size="16px" fill="#000000" text-anchor="middle" style="white-space: pre;" direction="ltr"></text><text x="123" y="519" font-family="Virgil, Segoe UI Emoji" font-size="16px" fill="#000000" text-anchor="middle" style="white-space: pre;" direction="ltr">if you dont pay totally, you </text><text x="123" y="540" font-family="Virgil, Segoe UI Emoji" font-size="16px" fill="#000000" text-anchor="middle" style="white-space: pre;" direction="ltr">decrease your points by:</text><text x="123" y="561" font-family="Virgil, Segoe UI Emoji" font-size="16px" fill="#000000" text-anchor="middle" style="white-space: pre;" direction="ltr"></text><text x="123" y="582" font-family="Virgil, Segoe UI Emoji" font-size="16px" fill="#000000" text-anchor="middle" style="white-space: pre;" direction="ltr">percentage of how much you </text><text x="123" y="603" font-family="Virgil, Segoe UI Emoji" font-size="16px" fill="#000000" text-anchor="middle" style="white-space: pre;" direction="ltr">owe to the bank by your limit</text><text x="123" y="624" font-family="Virgil, Segoe UI Emoji" font-size="16px" fill="#000000" text-anchor="middle" style="white-space: pre;" direction="ltr"></text><text x="123" y="645" font-family="Virgil, Segoe UI Emoji" font-size="16px" fill="#000000" text-anchor="middle" style="white-space: pre;" direction="ltr">so if your limit is 1000 and </text><text x="123" y="666" font-family="Virgil, Segoe UI Emoji" font-size="16px" fill="#000000" text-anchor="middle" style="white-space: pre;" direction="ltr">you dont pay 100, your </text><text x="123" y="687" font-family="Virgil, Segoe UI Emoji" font-size="16px" fill="#000000" text-anchor="middle" style="white-space: pre;" direction="ltr">percentage is 10%, so your </text><text x="123" y="708" font-family="Virgil, Segoe UI Emoji" font-size="16px" fill="#000000" text-anchor="middle" style="white-space: pre;" direction="ltr">points decrease by 10 points, </text><text x="123" y="729" font-family="Virgil, Segoe UI Emoji" font-size="16px" fill="#000000" text-anchor="middle" style="white-space: pre;" direction="ltr">ending up with:</text><text x="123" y="750" font-family="Virgil, Segoe UI Emoji" font-size="16px" fill="#000000" text-anchor="middle" style="white-space: pre;" direction="ltr"></text><text x="123" y="771" font-family="Virgil, Segoe UI Emoji" font-size="16px" fill="#000000" text-anchor="middle" style="white-space: pre;" direction="ltr">40 points</text></g><g transform="translate(2222.3361427647833 902.703123035203) rotate(0 108.5 94.5)"><text x="0" y="15" font-family="Virgil, Segoe UI Emoji" font-size="16px" fill="#000000" text-anchor="start" style="white-space: pre;" direction="ltr">100 points: very good payer</text><text x="0" y="36" font-family="Virgil, Segoe UI Emoji" font-size="16px" fill="#000000" text-anchor="start" style="white-space: pre;" direction="ltr"></text><text x="0" y="57" font-family="Virgil, Segoe UI Emoji" font-size="16px" fill="#000000" text-anchor="start" style="white-space: pre;" direction="ltr">75 points: good payer</text><text x="0" y="78" font-family="Virgil, Segoe UI Emoji" font-size="16px" fill="#000000" text-anchor="start" style="white-space: pre;" direction="ltr"></text><text x="0" y="99" font-family="Virgil, Segoe UI Emoji" font-size="16px" fill="#000000" text-anchor="start" style="white-space: pre;" direction="ltr">50 points: neutral payer</text><text x="0" y="120" font-family="Virgil, Segoe UI Emoji" font-size="16px" fill="#000000" text-anchor="start" style="white-space: pre;" direction="ltr"></text><text x="0" y="141" font-family="Virgil, Segoe UI Emoji" font-size="16px" fill="#000000" text-anchor="start" style="white-space: pre;" direction="ltr">25 points: vulnerable payer</text><text x="0" y="162" font-family="Virgil, Segoe UI Emoji" font-size="16px" fill="#000000" text-anchor="start" style="white-space: pre;" direction="ltr"></text><text x="0" y="183" font-family="Virgil, Segoe UI Emoji" font-size="16px" fill="#000000" text-anchor="start" style="white-space: pre;" direction="ltr">0: severe vulnerable payer</text></g><g stroke-linecap="round" transform="translate(2508.399566528739 792.4210445988082) rotate(0 128 393.5)"><path d="M1.16 -1.1 C99.19 1.62, 196.97 -1.09, 256.28 0.39 M0.47 -0.59 C72.47 0.75, 144.88 1.17, 255.42 0.47 M256.06 0.46 C258.21 299.12, 258.76 595.95, 256.77 786.96 M255.98 0.3 C254.91 264.5, 255.65 529.22, 256.19 787.14 M256.84 788.08 C181.94 788.4, 110.12 788.37, -0.14 788.13 M256.78 786.42 C162.31 784.54, 66.74 785.87, 0.68 786.89 M-0.75 787.52 C1.38 552.94, 1.8 317.24, -0.54 -0.61 M-0.21 787.19 C1.3 584.8, 1.48 382.91, -0.04 0.01" stroke="#000000" stroke-width="1" fill="none"></path></g><g transform="translate(2514.081855323362 1164.421044598808) rotate(0 121.5 21)"><text x="121.5" y="15" font-family="Virgil, Segoe UI Emoji" font-size="16px" fill="#000000" text-anchor="middle" style="white-space: pre;" direction="ltr">todo: score calculation based </text><text x="121.5" y="36" font-family="Virgil, Segoe UI Emoji" font-size="16px" fill="#000000" text-anchor="middle" style="white-space: pre;" direction="ltr">on loans</text></g><g stroke-linecap="round" transform="translate(175.48705482850983 420.97159450495656) rotate(0 119.5 109)"><path d="M1.14 -0.76 C58.52 -0.79, 117.11 0.27, 238.94 -1.2 M-0.53 0.58 C54.06 1.91, 107.89 1.63, 239.75 -0.27 M239.8 -1.21 C237.99 45.02, 239.22 90.49, 239.82 216.59 M238.98 -0.16 C237.93 77.16, 238.33 156.62, 239.16 217.99 M240.59 218.92 C171.79 217.61, 102.12 217.46, -0.78 217.95 M239.78 218.44 C173.09 217.25, 107.36 217.11, 0.75 218.09 M-0.3 218.15 C2.06 158.99, 2.45 101.37, 0.89 -0.46 M-0.67 217.88 C-1.78 135.48, -1.95 54.24, -0.59 0.67" stroke="#000000" stroke-width="1" fill="none"></path></g><g transform="translate(239.98705482850983 464.97159450495656) rotate(0 55 65)"><text x="55" y="19" font-family="Virgil, Segoe UI Emoji" font-size="20px" fill="#000000" text-anchor="middle" style="white-space: pre;" direction="ltr">Issues</text><text x="55" y="45" font-family="Virgil, Segoe UI Emoji" font-size="20px" fill="#000000" text-anchor="middle" style="white-space: pre;" direction="ltr">id</text><text x="55" y="71" font-family="Virgil, Segoe UI Emoji" font-size="20px" fill="#000000" text-anchor="middle" style="white-space: pre;" direction="ltr">account_id</text><text x="55" y="97" font-family="Virgil, Segoe UI Emoji" font-size="20px" fill="#000000" text-anchor="middle" style="white-space: pre;" direction="ltr">description</text><text x="55" y="123" font-family="Virgil, Segoe UI Emoji" font-size="20px" fill="#000000" text-anchor="middle" style="white-space: pre;" direction="ltr">status</text></g><g stroke-linecap="round"><g transform="translate(826.0864976368466 521.1630348854048) rotate(0 -189.8624134430206 3.864191189934786)"><path d="M0.1 0.64 C-46.27 1.35, -215.39 2.28, -278.54 3.47 C-341.69 4.67, -362.06 7.35, -378.8 7.8 M-1.31 -0.07 C-47.72 0.86, -215.84 3.69, -278.93 4.65 C-342.01 5.61, -363.13 5.37, -379.82 5.71" stroke="#000000" stroke-width="1" fill="none"></path></g></g><g transform="translate(626.0217600732631 422.1732659628824) rotate(0 7.5 39)"><text x="0" y="19" font-family="Virgil, Segoe UI Emoji" font-size="20px" fill="#000000" text-anchor="start" style="white-space: pre;" direction="ltr">1</text><text x="0" y="45" font-family="Virgil, Segoe UI Emoji" font-size="20px" fill="#000000" text-anchor="start" style="white-space: pre;" direction="ltr">/</text><text x="0" y="71" font-family="Virgil, Segoe UI Emoji" font-size="20px" fill="#000000" text-anchor="start" style="white-space: pre;" direction="ltr">N</text></g><g stroke-linecap="round"><g transform="translate(1113.598118459127 952.3338259047721) rotate(0 28.521826871109624 -0.8181183912789063)"><path d="M-0.18 -1.19 C9.65 -1.49, 49.1 -2.52, 58.78 -2.43 M-1.73 0.8 C7.95 0.68, 47.4 -0.81, 57.73 -1.35" stroke="#000000" stroke-width="1" fill="none"></path></g></g><g transform="translate(1140.4022003500868 854.7110806198706) rotate(0 7.5 39)"><text x="0" y="19" font-family="Virgil, Segoe UI Emoji" font-size="20px" fill="#000000" text-anchor="start" style="white-space: pre;" direction="ltr">1</text><text x="0" y="45" font-family="Virgil, Segoe UI Emoji" font-size="20px" fill="#000000" text-anchor="start" style="white-space: pre;" direction="ltr">/</text><text x="0" y="71" font-family="Virgil, Segoe UI Emoji" font-size="20px" fill="#000000" text-anchor="start" style="white-space: pre;" direction="ltr">N</text></g><g transform="translate(1110.1124644437352 978.2000039303812) rotate(0 35 28.5)"><text x="35" y="14" font-family="Virgil, Segoe UI Emoji" font-size="14.62312380360624px" fill="#000000" text-anchor="middle" style="white-space: pre;" direction="ltr">one</text><text x="35" y="33" font-family="Virgil, Segoe UI Emoji" font-size="14.62312380360624px" fill="#000000" text-anchor="middle" style="white-space: pre;" direction="ltr">invoice </text><text x="35" y="52" font-family="Virgil, Segoe UI Emoji" font-size="14.62312380360624px" fill="#000000" text-anchor="middle" style="white-space: pre;" direction="ltr">per/month</text></g><g stroke-linecap="round" transform="translate(10 493.9228791686371) rotate(0 71.04824104169165 68)"><path d="M0.73 1.95 C31.41 -0.63, 64.54 -0.58, 142.04 1.5 M-0.8 -0.26 C52.26 1.51, 104.73 0.85, 141.36 -0.15 M140.75 1.61 C143.81 38.23, 140.76 81.12, 143.66 134.1 M141.63 0.66 C141.53 52.33, 141.45 103.09, 142.07 135.84 M142.66 137.56 C89.69 137.04, 38.16 137.81, 1.61 135.01 M141.34 135.2 C92.72 136.34, 42.83 134.88, -0.25 135.04 M-1.46 134.67 C0.75 84.68, 2.32 30.09, -0.47 -0.31 M0.96 136.78 C-0.84 92.22, -0.51 48.38, 0.53 0.55" stroke="#000000" stroke-width="1" fill="none"></path></g><g transform="translate(15.548241041691654 519.9228791686371) rotate(0 65.5 42)"><text x="65.5" y="15" font-family="Virgil, Segoe UI Emoji" font-size="16px" fill="#000000" text-anchor="middle" style="white-space: pre;" direction="ltr">Possible Status:</text><text x="65.5" y="36" font-family="Virgil, Segoe UI Emoji" font-size="16px" fill="#000000" text-anchor="middle" style="white-space: pre;" direction="ltr">Open</text><text x="65.5" y="57" font-family="Virgil, Segoe UI Emoji" font-size="16px" fill="#000000" text-anchor="middle" style="white-space: pre;" direction="ltr">Closed</text><text x="65.5" y="78" font-family="Virgil, Segoe UI Emoji" font-size="16px" fill="#000000" text-anchor="middle" style="white-space: pre;" direction="ltr"></text></g><g stroke-linecap="round" transform="translate(1366.6844337961343 10) rotate(0 148.4751509280345 76.89948056033643)"><path d="M1.32 1.36 C75.13 -0.11, 150.27 -2.82, 296.42 -0.48 M0.19 -0.38 C67.49 0.34, 135.96 0.93, 297.67 0.32 M297.5 1.64 C298.63 30.96, 298.62 61.63, 298.42 154.24 M296.83 -0.13 C296.87 55.11, 297.14 108.54, 296.9 154.17 M296.3 153.42 C226.01 153.09, 158.71 154.12, -0.36 153.76 M297 153.36 C234.14 154.96, 170.74 155.9, -0.46 153.69 M-1.81 155.4 C1.01 98.42, 0.39 40.67, 1.51 -1.27 M0.13 153.6 C0.73 114.14, -0.4 74.12, -0.13 0.31" stroke="#000000" stroke-width="1" fill="none"></path></g></svg>